<svg xmlns="http://www.w3.org/2000/svg" viewBox="0 0 1920 1280"><defs><style>.a{fill:#ff6198;}</style></defs><path class="a" d="M197.33,1232.89a4,4,0,0,0,2.83-1.17l31.05-31h78.12a4,4,0,0,0,2.83-1.17l104.56-104.56a4,4,0,0,0,1.17-2.83V961.66L735.71,643.83h43a4,4,0,0,0,2.83-1.17L813.13,611H921.78a4,4,0,0,0,2.83-1.17l184.56-184.57h36.61a4,4,0,0,0,2.83-1.17L1173,399.7a4,4,0,0,0,1.17-2.83V0h-8V395.21l-22.08,22.08h-36.61a4,4,0,0,0-2.82,1.17L920.12,603H811.47a4,4,0,0,0-2.83,1.17L777,635.83h-43a4,4,0,0,0-2.83,1.17L411.06,957.17a4,4,0,0,0-1.17,2.83v130.45L307.68,1192.67H229.56a4,4,0,0,0-2.83,1.17l-31,31.05H130.22a4,4,0,0,0-2.83,1.17L73.45,1280H84.77l47.11-47.11Z"/><path class="a" d="M189.27,1209.72l29-29h81a4,4,0,0,0,2.83-1.17l93.78-93.78a4,4,0,0,0,1.17-2.83V948.1L772.77,572.44H862a4,4,0,0,0,2.83-1.17l184.05-184h56.51a21,21,0,1,0,0-8h-58.17a4,4,0,0,0-2.83,1.17L860.34,564.44H771.11a4,4,0,0,0-2.83,1.18l-378,378a4,4,0,0,0-1.17,2.82v134.79l-91.43,91.44h-81a4,4,0,0,0-2.83,1.17l-29.05,29.05H0v8H186.44A4,4,0,0,0,189.27,1209.72Z"/><path class="a" d="M179.49,1187.38l27.72-27.71h80.57a4,4,0,0,0,2.83-1.17l84.66-84.67a4,4,0,0,0,1.17-2.83V939.1L761.1,554.44H854a4,4,0,0,0,2.83-1.17l170.05-170a4,4,0,0,0,1.18-2.83V0h-8V378.73L852.34,546.44h-92.9a4,4,0,0,0-2.82,1.18l-387,387a4,4,0,0,0-1.18,2.82v131.9l-82.32,82.33H205.56a4,4,0,0,0-2.83,1.17L175,1180.56H0v8H176.67A4,4,0,0,0,179.49,1187.38Z"/><path class="a" d="M169.05,1169.05l29.5-29.49h79.67a4,4,0,0,0,2.83-1.18l74-74a4,4,0,0,0,1.17-2.82V931.43L759.1,528.56h72a4,4,0,0,0,2.83-1.18L927.33,434a4,4,0,0,0,1.17-2.82V0h-8V429.51l-91,91h-72a4,4,0,0,0-2.82,1.17L349.39,927a4,4,0,0,0-1.17,2.83V1059.9l-71.65,71.66H196.89a4,4,0,0,0-2.83,1.17l-29.49,29.49H0v8H166.22A4,4,0,0,0,169.05,1169.05Z"/><path class="a" d="M161.05,1149.5l30.38-30.39h76.13a4,4,0,0,0,2.82-1.17l62.45-62.44a4,4,0,0,0,1.17-2.83V922.55L748.43,508.11H800a4,4,0,0,0,2.83-1.17l41.83-41.83a4,4,0,0,0,1.17-2.83V0h-8V460.62l-39.49,39.49H746.78a4,4,0,0,0-2.83,1.17L327.17,918.06a4,4,0,0,0-1.17,2.83V1051l-60.1,60.1H189.78a4,4,0,0,0-2.83,1.17l-30.38,30.39H0v8H158.22A4,4,0,0,0,161.05,1149.5Z"/><path class="a" d="M148.61,1129.05,179,1098.67h77.9a4,4,0,0,0,2.83-1.17l53.11-53.12a4,4,0,0,0,1.17-2.82V911.88L766.72,459.16a4,4,0,0,0,1.17-2.83v-420L804.21,0H792.9L761.06,31.84a4,4,0,0,0-1.17,2.83v420L307.17,907.39a4,4,0,0,0-1.17,2.83V1039.9l-50.77,50.77h-77.9a4,4,0,0,0-2.83,1.17l-30.38,30.38H0v8H145.78A4,4,0,0,0,148.61,1129.05Z"/><path class="a" d="M248.16,996.61l44.45-44.45a4,4,0,0,0,1.17-2.83v-49.9L683.27,509.94a4,4,0,0,0,1.17-2.83V82.55L757.72,9.27a4,4,0,0,0,1.17-2.83V0h-8V4.79L677.62,78.06a4,4,0,0,0-1.18,2.83V505.45L287,895a4,4,0,0,0-1.17,2.83v49.9l-42.1,42.1H0v8H245.33A4,4,0,0,0,248.16,996.61Z"/><path class="a" d="M241.05,973.5l30.67-30.67a4,4,0,0,0,1.17-2.83V889.66l391.8-391.8a4,4,0,0,0,1.17-2.83V72.77l41.23-41.23a4,4,0,0,0,1.17-2.83V0h-8V27.05L659,68.28a4,4,0,0,0-1.17,2.83V493.37l-391.8,391.8a4,4,0,0,0-1.17,2.83v50.34l-28.32,28.33H0v8H238.22A4,4,0,0,0,241.05,973.5Z"/><path class="a" d="M87.89,313.91a21,21,0,1,0,8,0V270.78A4,4,0,0,0,94.72,268L0,173.23v11.32l87.89,87.88Z"/><path class="a" d="M98.89,250.89h40.79L152,263.23a21,21,0,1,0,5.75-5.56l-13.61-13.61a4,4,0,0,0-2.83-1.17H100.55L0,142.34v11.32l96.06,96.06A4,4,0,0,0,98.89,250.89Z"/><path class="a" d="M119.44,225h62.9l42.22,42.21v75.13L202.88,364a21,21,0,1,0,5.35,6l23.15-23.15a4,4,0,0,0,1.18-2.83V265.56a4,4,0,0,0-1.18-2.83l-44.55-44.56A4,4,0,0,0,184,217H121.1L0,95.9v11.31L116.62,223.83A4,4,0,0,0,119.44,225Z"/><path class="a" d="M251.84,143.72,365.78,257.66V421.45l-76.29,76.29a21,21,0,1,0,5.72,5.6l77.4-77.4a4,4,0,0,0,1.17-2.83V256a4,4,0,0,0-1.17-2.83L258.67,139.23V0h-8V140.89A4,4,0,0,0,251.84,143.72Z"/><path class="a" d="M231.77,156.67,345.09,270V378.14l-41.15,41.15a21,21,0,1,0,5.54,5.77l42.44-42.44a4,4,0,0,0,1.17-2.83V268.33a4,4,0,0,0-1.17-2.83L238.6,152.19V0h-8V153.84A4,4,0,0,0,231.77,156.67Z"/><path class="a" d="M212.78,178.33,304.44,270v9a21,21,0,1,0,8,0V268.33a4,4,0,0,0-1.17-2.83l-91.66-91.66V0h-8V175.5A4,4,0,0,0,212.78,178.33Z"/><path class="a" d="M1689.94,1209.62,1336.61,856.28a4,4,0,0,0-2.83-1.17H756.55l-19.2-19.2a21,21,0,1,0-5.12,6.2l19.83,19.83a4,4,0,0,0,2.83,1.17h577.23l351,351V1280h8v-67.56A4,4,0,0,0,1689.94,1209.62Z"/><path class="a" d="M1719.27,1191,1330.38,802.06a4,4,0,0,0-2.82-1.17H878.68a21,21,0,1,0,0,8H1325.9l386.54,386.54V1280h8v-86.22A4,4,0,0,0,1719.27,1191Z"/><path class="a" d="M1741.5,1181.73l-403-403a4,4,0,0,0-2.83-1.17H1122.55l-46.69-46.69a21,21,0,1,0-6.29,5l48.49,48.49a4,4,0,0,0,2.83,1.17h213.18l400.6,400.6V1280h8v-95.44A4,4,0,0,0,1741.5,1181.73Z"/><path class="a" d="M1079.56,943.11H723.89a4,4,0,0,0-2.83,1.17l-62.61,62.61a4,4,0,0,0-1.17,2.83V1280h8V1011.38l60.27-60.27H1077.9L1406.79,1280h11.31L1082.38,944.28A4,4,0,0,0,1079.56,943.11Z"/><path class="a" d="M1093.78,918.22H716.44a4,4,0,0,0-2.82,1.17L633.91,999.1a4,4,0,0,0-1.17,2.82v242.65L597.31,1280h11.31l31-31a4,4,0,0,0,1.17-2.83V1003.58l77.36-77.36h374L1445.9,1280h11.31l-360.6-360.61A4,4,0,0,0,1093.78,918.22Z"/><path class="a" d="M1174.19,1176.56H776.89a4,4,0,0,0-2.83,1.18l-17.67,17.66a21,21,0,1,0,5.93,5.39l16.23-16.23h394L1268,1280h11.32L1177,1177.74A4,4,0,0,0,1174.19,1176.56Z"/><path class="a" d="M1120.47,1062.25H796.32l-17.75-17.76a21,21,0,1,0-5.52,5.8l18.79,18.79a4,4,0,0,0,2.83,1.17h324.15L1328.57,1280h11.31L1123.3,1063.42A4,4,0,0,0,1120.47,1062.25Z"/><path class="a" d="M1080.11,985.67h-124a4,4,0,0,0-2.83,1.17l-10.45,10.45a21.06,21.06,0,1,0,5.65,5.66l9.29-9.28h120.68L1364.79,1280h11.31L1082.94,986.84A4,4,0,0,0,1080.11,985.67Z"/><path class="a" d="M1585.06,822.29V710.68a21,21,0,1,0-8,0V823.94a4,4,0,0,0,1.17,2.83l296.27,296.28a4,4,0,0,0,2.83,1.17H1920v-8h-41Z"/><path class="a" d="M1666.11,812.68V597.33a4,4,0,0,0-1.17-2.83l-47.45-47.44a21,21,0,1,0-5.61,5.7L1658.11,599V814.33a4,4,0,0,0,1.17,2.83l234.78,234.78a4,4,0,0,0,2.83,1.17H1920v-8h-21.45Z"/><path class="a" d="M1635.83,823.07V657.78a4,4,0,0,0-1.17-2.83l-65.13-65.13a21,21,0,1,0-5.87,5.45l64.17,64.16V824.72a4,4,0,0,0,1.17,2.83l259.73,259.72a4,4,0,0,0,2.83,1.17H1920v-8h-26.79Z"/><path class="a" d="M1684.28,271.16l114,114V535.84a21,21,0,1,0,8,0V383.56a4,4,0,0,0-1.17-2.83l-114.05-114V0h-8V268.33A4,4,0,0,0,1684.28,271.16Z"/><path class="a" d="M1697.78,799.68V510.22a4,4,0,0,0-1.17-2.83L1631.21,442a21,21,0,1,0-5.82,5.49l64.39,64.39V801.33a4,4,0,0,0,1.17,2.83l215.55,215.56a4,4,0,0,0,2.83,1.17H1920v-8h-9Z"/><path class="a" d="M1605.52,260.85H1568a4,4,0,0,0-2.83,1.17l-24.46,24.46a4,4,0,0,0-1.17,2.83v37.92L1412.78,454H1242.67a4,4,0,0,0-2.83,1.17L1188.3,506.7a21,21,0,1,0,5.66,5.66L1244.32,462h170.11a4,4,0,0,0,2.83-1.17l129.1-129.1a4,4,0,0,0,1.18-2.83V291l22.12-22.12h37.52a4,4,0,0,0,2.83-1.17l30.15-30.16a4,4,0,0,0,1.17-2.83V0h-8V233Z"/><path class="a" d="M1865.11,675.72a21,21,0,1,0-8,0V810.44a4,4,0,0,0,1.17,2.83L1920,875V863.68l-54.89-54.89Z"/><path class="a" d="M1623.92,299.2a21,21,0,1,0,4.78,6.53l34.57-34.57a4,4,0,0,0,1.17-2.83V0h-8V266.68Z"/></svg>